<svg xmlns="http://www.w3.org/2000/svg" width="51.502" height="54.521" viewBox="0 0 51.502 54.521">
  <g id="iso-31" transform="translate(-460.363 -244.199)">
    <g id="Group_121" data-name="Group 121" transform="translate(460.363 244.199)">
      <path id="Path_56" data-name="Path 56" d="M1613.925,829.689a5.557,5.557,0,0,1,.545,2.5,37.853,37.853,0,0,1-.194,5.706,2.432,2.432,0,0,1-1.464,1.811,5.021,5.021,0,0,1-4.18-.252c-.991-.685-1.117-1.838-1.243-2.932a19.22,19.22,0,0,1,.351-6.4c.477-1.216,1.788-1.527,2.968-1.621a3.751,3.751,0,0,1,3.216,1.189" transform="translate(-1571.654 -813.329)" fill="#006bb6"/>
      <path id="Path_57" data-name="Path 57" d="M502.291,280.485l-.161.124a19.209,19.209,0,0,1-7.545-.041l.184-.182a7.769,7.769,0,0,1,7.522.1m-8.188-.468-.459.327a16.937,16.937,0,0,1-5.353-2.28V278a12.969,12.969,0,0,1,1.693-.856,23.694,23.694,0,0,0,4.119,2.872M508.6,278a16.153,16.153,0,0,1-4.276,2.036l-1.076.306a2.654,2.654,0,0,1-.5-.327l.043-.062a20.291,20.291,0,0,0,4.05-2.831A9.238,9.238,0,0,1,508.6,278m-2.442-1.159a14.061,14.061,0,0,1-2.543,1.957c-.525.285-1.05.591-1.6.836l-.985-.385.072-.141a24.6,24.6,0,0,0,2.2-3.1l.066-.041a13.5,13.5,0,0,1,2.793.874m-12.582-.859a31.692,31.692,0,0,0,2.31,3.24c-.322.165-.709.268-1.03.43a15.384,15.384,0,0,1-4.161-2.731v-.062a16.632,16.632,0,0,1,2.789-.9Zm9.035-.182.02.062a20.891,20.891,0,0,1-2.307,3.157,7.257,7.257,0,0,1-1.145-.124l-.384-.038c-.046-1.2-.069-2.263,0-3.466a19.77,19.77,0,0,1,3.817.409m-4.509,3.037c-.479.1-1,.1-1.464.2a18.225,18.225,0,0,1-2.379-3.2l.115-.082a21.925,21.925,0,0,1,3.705-.365l.023,3.443Zm-4.8-4.685a2.136,2.136,0,0,0-.64.021l.571,1.2-.069.062a29.6,29.6,0,0,0-3.019.959l-.092-.041a16.65,16.65,0,0,1-1.762-2.019c-.112-.344-.571-.141-.82-.182a17.857,17.857,0,0,0,2.012,2.5c-.62.327-1.237.694-1.877.959a15.635,15.635,0,0,1-3.613-3.443,2.9,2.9,0,0,0-.732,0,17.44,17.44,0,0,0,6.885,5.561l.023-.021.023.062a20.275,20.275,0,0,0,5.763,1.61,18.774,18.774,0,0,0,17.61-7.215,4.364,4.364,0,0,0-.735,0,16.679,16.679,0,0,1-3.495,3.384l-.226-.021c-.574-.327-1.191-.591-1.743-.915a17.179,17.179,0,0,0,1.992-2.466h-.709a15.29,15.29,0,0,1-1.923,2.219,27.077,27.077,0,0,0-2.95-.939l-.115-.079a9.442,9.442,0,0,0,.548-1.2h-.617l-.62,1.1a32.035,32.035,0,0,0-4.21-.488c-.066-.182.026-.447-.066-.609H498.1c-.046.244.069.427-.066.63a29.882,29.882,0,0,0-4.119.447l-.614-1.08Zm-14.5-15.654-1.418.021q-.034,1.721,0,3.443c.778.024,1.51,0,2.264.062v6.93l-.023.282-2.264.041q-.069,1.682,0,3.36h10.088v-3.36c-.755-.041-1.6.021-2.333-.062l.023-7.153.046-.062,2.264-.021c.026-1.162.046-2.4-.023-3.466l-8.624-.015Zm38.862,1.224a12.032,12.032,0,0,0-10.567-.285,5.645,5.645,0,0,0-3.111,3.872c-.62,2.589-.459,5.667,1.733,7.6a11.266,11.266,0,0,0,9.609,1.651,4.592,4.592,0,0,0,1-.309l.1-.038a6.759,6.759,0,0,0,2.744-1.874,8.624,8.624,0,0,0,.778-8.13,5.642,5.642,0,0,0-2.284-2.489m-19.4-.65c-2.517-.959-6.038-1.059-8.326.427a3.893,3.893,0,0,0-1.556,4.279c.3,1.468,1.854,2.548,3.338,3.054,2.038.653,4.165,1.121,6.222,1.754.207.082.482.265.44.488,0,.182-.21.285-.371.365a6.515,6.515,0,0,1-6.035-1.345c-.184-.2-.3-.447-.482-.653l-3.088.021c-.043,1.651-.069,3.546,0,5.176l3.433-.021.046-.98c.391.165.778.368,1.168.553a10.555,10.555,0,0,0,7.8,0,4.1,4.1,0,0,0,2.379-4.278c-.253-1.733-2.081-3.3-3.932-3.731l-5.536-1.445-.414-.185a.548.548,0,0,1-.253-.55c.437-.671,1.444-.468,2.2-.447a5.785,5.785,0,0,1,4.184,2.019c1.008,0,2.173.021,3.272-.021.043-1.674-.023-3.14-.046-4.832-1.027-.021-2.287-.021-3.315.024-.046.244.043.589-.072.836Zm1.851-6.93a17.4,17.4,0,0,1,2.36,3.178,17.954,17.954,0,0,1-3.774.406c-.046-1.077-.023-2.281,0-3.4.459-.062.961-.124,1.414-.182m-2.146.165c.069,1.059.023,2.28.023,3.4a9.278,9.278,0,0,1-1.851-.062,13.5,13.5,0,0,1-2.012-.327,18.015,18.015,0,0,1,2.379-3.2l1.46.185Zm-2.222-.388-.069.162a26.155,26.155,0,0,0-2.241,3.078l-.089.021a19.406,19.406,0,0,1-2.721-.836l.046-.124a18.107,18.107,0,0,1,4.05-2.669c.341.121.683.227,1.024.368m10.295,2.325L506,254.3a15.771,15.771,0,0,1-2.793.856,33.226,33.226,0,0,0-2.353-3.2c.322-.165.709-.285,1.05-.447a16.263,16.263,0,0,1,4.138,2.731m-12.008-3.078a23.144,23.144,0,0,0-4.092,2.872,7.869,7.869,0,0,1-1.739-.856v-.038a17.129,17.129,0,0,1,4.736-2.163l.2-.121v.038c.184.041.322-.141.479-.021l.414.288Zm14.407,1.933-.043.082-1.578.8H506.7a19.638,19.638,0,0,0-4.073-2.813l.44-.347a17.044,17.044,0,0,1,5.372,2.28m-6.288-2.486v.041a7.591,7.591,0,0,1-7.318.227l-.364-.265a18.72,18.72,0,0,1,7.683,0m-2.356-.915a11.447,11.447,0,0,0-2.038-.021,5.965,5.965,0,0,0-.847.021,18.345,18.345,0,0,0-13.7,7.274,3.047,3.047,0,0,0,.732-.021,19.679,19.679,0,0,1,1.854-2.019,12.044,12.044,0,0,1,1.785-1.365c.594.347,1.257.633,1.828.956a17.91,17.91,0,0,0-1.966,2.448,1.578,1.578,0,0,0,.686,0,16.323,16.323,0,0,1,1.92-2.18c.985.327,1.946.671,2.95.915l.089.082-.571,1.183a2.381,2.381,0,0,0,.663,0c.207-.347.364-.736.594-1.08a24.913,24.913,0,0,0,4.142.447c.184.141.046.447.115.633h.614c.072-.206-.02-.43.072-.612a24.205,24.205,0,0,0,4-.468l.115.021.617,1.059a1.639,1.639,0,0,0,.643-.041l-.574-1.18.046-.041a25.864,25.864,0,0,0,3.042-.977,19.269,19.269,0,0,1,1.969,2.242,2.359,2.359,0,0,0,.683-.041,7.832,7.832,0,0,0-.981-1.283,9.368,9.368,0,0,0-1.008-1.1v-.1l1.6-.836.233-.079a15.9,15.9,0,0,1,3.61,3.4,1.746,1.746,0,0,0,.735-.021,18.534,18.534,0,0,0-13.586-7.215l-.023.041-.046-.041ZM472.9,244.7h51v41.776h-51Z" transform="translate(-472.9 -244.7)" fill="#006bb6"/>
    </g>
    <text id="_9001_:2015" data-name="9001 :2015" transform="translate(460.865 296.72)" fill="#006bb6" font-size="10" font-family="Arial"><tspan x="0" y="0">9001 :2015</tspan></text>
  </g>
</svg>
