<?xml version="1.0" encoding="utf-8"?>
<!-- Generator: Adobe Illustrator 25.0.0, SVG Export Plug-In . SVG Version: 6.00 Build 0)  -->
<svg version="1.1" id="Laag_1" xmlns="http://www.w3.org/2000/svg" xmlns:xlink="http://www.w3.org/1999/xlink" x="0px" y="0px"
	 viewBox="0 0 437.4 146.9" style="enable-background:new 0 0 437.4 146.9;" xml:space="preserve">
<style type="text/css">
	.st0{fill:#3E2B52;}
</style>
<g>
	<path class="st0" d="M29.7,55.6C23.2,49.2,16.6,42.7,9.8,36c1.8-2.7,3.5-5.2,5.4-8C28.8,41.7,42.2,55.2,56,69
		c0.2-1.1,0.4-1.5,0.4-1.9c0-6.1,0.1-12.1,0-18.2c0-1-0.7-2.2-1.4-2.9C46.1,37,37.2,28.2,28.3,19.3c-0.7-0.7-1.6-1.2-2.8-2.1
		c3-2.2,5.4-4,8.2-6c7.4,7.6,14.7,15,21.9,22.4c0.2-0.1,0.5-0.2,0.7-0.3c0-0.8,0.1-1.7,0.1-2.5c0-9,0.1-17.9,0-26.9
		c0-1.8,0.6-2.5,2.3-2.7c2.2-0.3,4.4-0.7,7-1.1c0,27.2,0,54.1,0,81.3c27.2,0,54,0,81.4,0c-0.5,3.1-0.9,5.7-1.5,8.3
		c-0.1,0.5-1.6,0.9-2.4,0.9c-8.8,0.1-17.6,0-26.5,0c-0.9,0-1.8,0-3.4,0c0.9,1.1,1.5,1.8,2,2.3c6.1,6.1,12.2,12.3,18.4,18.3
		c1.8,1.7,1.9,2.9,0.3,4.7c-1.4,1.5-2.5,3.2-4,5.2c-5.7-5.8-11.2-11.4-16.7-16.9c-3.5-3.5-7.2-6.9-10.5-10.6
		c-2.1-2.3-4.3-3.2-7.4-3.1c-5.3,0.3-4.1-0.5-4.6,4.5c-0.7,6.2,1.4,10.6,6,14.7c7.1,6.3,13.5,13.3,20.2,20c0.6,0.6,1.1,1.2,2,2
		c-2.6,1.8-5.1,3.5-8,5.5c-6.6-6.7-13-13.2-19.9-20.1c-0.1,1.4-0.2,2.3-0.2,3.2c0,7.6-0.1,15.1,0,22.7c0,1.7-0.5,2.4-2.1,2.7
		c-2.3,0.3-4.6,0.7-7.3,1.2c0-1.2,0-2.2,0-3.1c0-16.7,0-33.4,0.1-50.1c0-2.4-0.7-3.2-3.1-3c-3.3,0.2-6.7,0.2-10,0
		c-2.2-0.1-2.8,0.7-2.8,2.8c0.1,16.7,0,33.4,0,50.1c0,1,0,1.9,0,3.4c-3-0.6-5.7-0.9-8.3-1.6c-0.6-0.2-1.1-1.6-1.2-2.5
		c-0.1-13.8,0-27.6,0-41.4c0-2.3,0-4.7,0-7c-0.1-16-12.6-28.6-28.7-28.8c-8.2-0.1-16.3,0-24.5,0c-0.9,0-1.8,0-3,0
		c0.5-2.9,0.8-5.4,1.5-7.9c0.2-0.6,1.5-1.3,2.4-1.3c7.7-0.1,15.5-0.1,23.2-0.1c0.8,0,1.6,0,2.4,0C29.6,56.1,29.6,55.9,29.7,55.6z"/>
	<path class="st0" d="M81.6,0c2.8,0.5,5.4,0.8,7.8,1.5c0.6,0.2,1.3,1.6,1.3,2.4c0.1,8.1,0.2,16.1,0,24.2c-0.1,2.6,0.7,3.3,3.2,3.2
		c3.4-0.2,6.8-0.2,10.2,0c2,0.1,2.5-0.7,2.5-2.6c-0.1-6,0-12,0-17.9c0-0.9,0-1.8,0-3.4c3.2,2,6,3.6,8.6,5.4c0.5,0.3,0.7,1.5,0.7,2.2
		c0.1,4.7,0.1,9.3,0,14c0,1.9,0.6,2.4,2.5,2.4c4.7-0.1,9.3-0.1,14,0c1,0,2.2,0.7,2.8,1.5c1.6,2.3,2.9,4.8,4.7,7.7
		c-1.4,0.1-2.2,0.2-3.1,0.2c-14.4,0-28.8,0.1-43.2,0c-2.2,0-2.9,0.7-2.8,2.8c0.2,3.4,0.2,6.8,0,10.2c-0.1,2.2,0.5,2.8,2.8,2.8
		c16.2-0.1,32.5,0,48.7-0.1c2.6,0,3.8,0.7,4,3.3c0.1,1.9,0.6,3.7,0.9,5.9c-22,0-43.6,0-65.4,0C81.6,43.6,81.6,22.1,81.6,0z"/>
	<path class="st0" d="M40.5,139.5c-3.2-1.9-5.8-3.5-8.3-5.2c-0.6-0.4-0.9-1.5-0.9-2.3c-0.1-4.5-0.1-9,0-13.5
		c0.1-2.1-0.5-2.9-2.7-2.8c-4.5,0.2-9,0.1-13.5,0c-1,0-2.2-0.7-2.8-1.4c-1.6-2.3-3-4.9-4.7-7.8c7.1,0,13.6,0,20,0
		c3.7,0,3.7,0,3.7-3.6c0-2.3,0-4.7,0-7c0-3.7-1.6-5.3-5.3-5.3c-7.2,0-14.3-0.1-21.5,0c-2.2,0-3-0.7-3.2-2.7c-0.2-2.1-0.6-4.1-1-6.4
		c1-0.1,1.9-0.2,2.8-0.2c7.7,0,15.5,0,23.2,0c8.7,0.1,14.4,5.8,14.4,14.4c0,13.6,0,27.2,0,40.9C40.5,137.3,40.5,138.1,40.5,139.5z"
		/>
	<path class="st0" d="M169.8,115c0,9,0,18,0,27.4c-2.4,0-4.6,0.1-6.8-0.1c-0.5,0-1.2-1.1-1.2-1.6c-0.1-2.6-0.1-5.1-0.1-7.7
		c0-10,0-20.1,0-30.1c0-1,0-2,0-3.3c2.4,0,4.5-0.2,6.6,0.1c0.8,0.1,1.6,1.1,2.1,1.8c5.3,7.9,10.6,15.9,15.9,23.8
		c0.3,0.5,0.8,1,1.5,2c0-9.5,0-18.4,0-27.7c2.4,0,4.6-0.1,6.8,0.1c0.5,0,1.2,1,1.2,1.6c0.1,13.1,0,26.2,0.1,39.4
		c0,1.4-0.6,1.7-1.9,1.9c-3.8,0.4-6.3-0.6-8.5-4.2c-4.7-8-10.1-15.6-15.2-23.4C170.2,115,170,115,169.8,115z"/>
	<path class="st0" d="M429.9,114.4c0-4.5,0.1-8.5,0-12.4c-0.1-1.9,0.6-2.7,2.6-2.5c1.6,0.2,3.1,0,5,0c0,14.3,0,28.4,0,42.5
		c-4.1,1.1-6.9,0.6-7.8-1c-2.3,0.7-4.5,1.8-6.8,2.2c-5.5,0.8-10.7-2.2-13.1-7.6c-2.5-5.7-2.5-11.5,0.4-17.1c3.5-6.9,11.4-9,18.1-5
		C428.6,113.7,429,113.9,429.9,114.4z M430.2,128.3c0-6-2.6-9.6-6.4-10c-4.4-0.4-7.4,2.6-7.8,7.7c-0.5,5.9,2.1,10.2,6.5,10.2
		c1.7,0,3.6-0.7,5-1.7C429.7,132.9,430.2,130.1,430.2,128.3z"/>
	<path class="st0" d="M264.5,142.5c-2.8-0.8-5.9,1.3-8.2-1.8c-2.7,1.9-5.9,2.9-9.4,2.4c-5.1-0.7-8.6-3.6-10.4-8.2
		c-2-5.2-2-10.6,0.3-15.8c3.4-7.5,11.6-9.9,18.6-5.6c0.3,0.2,0.7,0.4,1.5,0.9c0-5.1,0-9.8,0-14.7c2.7,0,5.1,0,7.6,0
		C264.5,113.9,264.5,127.9,264.5,142.5z M257.3,126.8c-0.2-0.9-0.3-2.3-0.8-3.6c-1.2-3.3-3.5-5-6.7-4.9c-3.1,0.1-5.5,1.9-6.3,5.3
		c-0.5,1.9-0.6,4-0.3,5.9c0.5,4.3,3.2,6.8,6.9,6.8c3.6,0,6.4-2.6,7-6.8C257.2,128.9,257.2,128.1,257.3,126.8z"/>
	<path class="st0" d="M372.8,83.5c0-14.3,0-28.4,0-42.7c2.2,0,4.3-0.1,6.3,0.1c0.5,0.1,1.3,1.3,1.3,2c0.1,6.2,0.1,12.5,0.1,18.7
		c0,0.8,0,1.6,0,3.2c1.2-1.1,1.8-1.7,2.5-2.3c1.5-1.5,3.2-2.8,4.3-4.5c3.5-5.5,8.7-4.7,14.2-4.3c-3.2,3.3-6.1,6.5-9.2,9.3
		c-2,1.7-2.2,2.9-0.5,5.1c3.3,4.3,6.3,8.8,9.4,13.2c0.5,0.7,0.9,1.4,1.6,2.4c-3.2,0-6,0.1-8.7-0.1c-0.7,0-1.5-1-1.9-1.7
		c-2.5-3.6-5-7.2-7.5-11c-2.6,1.6-4.5,3.2-4.1,6.5c0.3,1.9,0,3.9,0,6.1C377.7,83.5,375.4,83.5,372.8,83.5z"/>
	<path class="st0" d="M262.9,40.7c0,5.1,0,9.9,0,14.1c3.2-0.8,6.2-2,9.2-2.1c5.3-0.3,9.3,2.7,9.6,8c0.5,7.5,0.1,15,0.1,22.9
		c-2,0-4.1,0.1-6.1-0.1c-0.5-0.1-1.3-1.3-1.3-2c-0.1-5.6-0.1-11.3-0.2-16.9c0-2.4-1.1-4.1-3.6-4.7c-2.5-0.6-5.2,0.2-6.3,2.4
		c-0.8,1.6-1.3,3.6-1.4,5.4c-0.2,4.2-0.1,8.5-0.1,12.7c0,3.3,0,3.4-3.4,3.3c-5.1-0.1-4.3,0.6-4.4-4.4c0-12,0-23.9,0-35.9
		c0-2,0.5-2.9,2.6-2.7C259.3,40.9,261,40.7,262.9,40.7z"/>
	<path class="st0" d="M345,70.8c0.6,3.1,1.9,5.3,4.7,6.2c5,1.6,8.7-0.4,11.7-4.6c1.8,1.4,3.5,2.7,5.2,3.9c-2.6,5.5-9.6,8.9-16.3,8
		c-6.5-0.9-11.5-5.2-12.4-11.5c-0.5-3.2-0.5-6.7,0.3-9.8c2-7.6,9.7-11.7,17.6-10c8.7,1.9,10.9,9.7,10.7,16.3c0,1.7-1.2,1.5-2.3,1.5
		c-5.4,0-10.8,0-16.2,0C347.1,70.8,346.2,70.8,345,70.8z M345.2,64.6c4.6,0,8.9,0,13.3,0c-0.4-3.3-2.3-5.2-5.5-5.5
		C349.3,58.8,346.4,60.7,345.2,64.6z"/>
	<path class="st0" d="M361.2,140.5c-4.3,2.8-8.8,3.3-13.5,1.7c-3.7-1.2-5.8-4.3-6-8.4c-0.2-3.8,1.5-7,5.2-8.3
		c3.7-1.3,7.6-1.8,11.3-2.8c0.8-0.2,2.2-1,2.2-1.4c-0.1-1.1-0.6-2.5-1.5-3.1c-3.7-2.4-8.3-0.2-9.2,4.4c-2.2-0.2-4.5-0.3-6.7-0.5
		c-0.8-4.2,1.5-8,5.9-9.6c4.3-1.6,8.8-1.7,13.2-0.3c3.8,1.2,5.7,3.7,5.8,7.8c0.1,4.8-0.1,9.6,0.1,14.4c0,0.9,1.1,1.8,1.4,2.7
		c0.4,1.4,0.7,2.9,0.7,4.3c0,0.4-1.3,1-2,1.1C365.6,143.1,363,143.1,361.2,140.5z M360.3,128.5c-2.6,0.6-5.3,1.2-7.9,1.8
		c-1.7,0.4-2.8,1.5-2.6,3.3c0.2,1.9,1.4,2.9,3.2,3.3C358.5,138,361.6,134.6,360.3,128.5z"/>
	<path class="st0" d="M196.4,70.8c0.2,3.4,1.8,5.5,4.7,6.3c4.8,1.4,8.4-0.5,11.3-4.7c1.8,1.4,3.6,2.7,5.3,4c-2.9,5.6-9.7,8.9-16.3,8
		c-6.7-0.9-11.2-5.2-12.6-11.7c-2.7-13.2,7.3-23,19.5-19.1c6.1,1.9,10.8,10,9.2,16.1c-0.1,0.6-1.4,1.2-2.2,1.2
		c-5.4,0.1-10.8,0.1-16.2,0.1C198.2,70.8,197.3,70.8,196.4,70.8z M196.4,64.6c4.5,0,8.9,0,13.3,0c-0.8-3.7-3-5.5-6.5-5.5
		C199.6,59.1,197.2,61.1,196.4,64.6z"/>
	<path class="st0" d="M230.4,129.6c-6.9,0-13.8,0-20.8,0c0.1,3.3,1.6,5.5,4.5,6.4c4.9,1.5,8.6-0.4,11.5-4.7c1.8,1.3,3.5,2.6,5.4,4
		c-3,5-7.4,7.4-12.9,7.9c-6.4,0.6-12.1-2.4-14.7-7.7c-3.1-6.1-2.3-14.2,1.9-19c3.8-4.5,10.4-6.1,16.4-4.1
		C228.1,114.5,231.9,121.7,230.4,129.6z M222.7,123.5c-0.3-3.6-3-5.8-6.6-5.6c-3.6,0.2-6.3,2.7-6.2,5.6
		C214.2,123.5,218.4,123.5,222.7,123.5z"/>
	<path class="st0" d="M298.9,129.6c-6.9,0-13.8,0-20.8,0c0.1,3.3,1.7,5.5,4.6,6.3c4.9,1.4,8.6-0.4,11.4-4.7c1.8,1.4,3.5,2.7,5.2,3.9
		c-2.2,5.4-9.6,9-16.1,8c-6.2-0.9-10.5-4.2-12.2-10.2c-1.8-6.3-1.3-12.5,3.7-17.3c4.5-4.3,9.9-5.1,15.7-3.2
		C296.8,114.5,300.5,121.9,298.9,129.6z M291.1,123.5c0.1-3-2.2-5.3-5.6-5.6c-3.7-0.3-6.9,2.1-7.2,5.6
		C282.5,123.5,286.7,123.5,291.1,123.5z"/>
	<path class="st0" d="M402.8,142.3c-2.5,0-4.9,0-7.6,0c0-3.7,0-7.2,0-10.8c0-2.7,0-5.3-0.1-8c-0.2-3.1-1.6-4.7-4.2-5
		c-2.8-0.4-5.5,1-6.4,3.7c-0.5,1.5-0.8,3.2-0.8,4.9c-0.1,5,0,10,0,15.2c-2.6,0-5,0-7.7,0c0-0.8-0.1-1.6-0.1-2.4
		c0-8.3,0.1-16.6,0-24.9c0-2.1,0.7-2.8,2.7-2.6c1,0.1,2-0.1,3,0.1c0.9,0.2,1.8,0.8,3.1,1.5c1.3-0.5,3.4-1.6,5.6-2.1
		c6.7-1.4,12,2,12.5,8.7C403.2,127.6,402.8,134.8,402.8,142.3z"/>
	<path class="st0" d="M316.2,83.5c-2.4,0-4.7,0-7.5,0c0-1.2,0-2.2,0-3.3c-0.1-5.2,0.1-10.5-0.2-15.7c-0.2-3.2-1.7-4.5-4.4-4.9
		c-2.7-0.3-5.3,1-6.2,3.6c-0.5,1.4-0.7,2.9-0.8,4.4c-0.1,4.6-0.1,9.1,0,13.7c0,1.7-0.4,2.3-2.2,2.4c-5.7,0.1-5.7,0.1-5.7-5.6
		c0-7.2,0-14.5,0-21.7c0-0.9,0-1.8,0-2.6c5.3-1.1,7.5-0.6,8,1c3.1-0.7,6.2-1.9,9.3-2c5.5-0.2,9.3,3.2,9.6,8.7
		C316.4,68.7,316.2,76,316.2,83.5z"/>
	<path class="st0" d="M190.6,40.9c0,2.4,0,4.6,0,7.1c-2.9,0-5.7,0-8.5,0c-4.1,0-3.7-0.4-3.7,3.8c0,9.5,0,18.9,0,28.4c0,1,0,2,0,3.3
		c-2.5,0-4.8,0.1-7.1-0.1c-0.4,0-1-1.5-1-2.3c-0.1-9.9,0-19.8,0-29.6c0-3.5,0-3.5-3.5-3.5c-2.8,0-5.6,0-8.7,0c0-2.4,0-4.7,0-7.1
		C168.8,40.9,179.5,40.9,190.6,40.9z"/>
	<path class="st0" d="M244.1,72.4c2.2,1.2,4.1,2.2,6,3.2c-2.1,6-9,9.7-15.9,8.6c-8.2-1.4-12.8-7.6-12.3-16.6
		c0.4-5.8,2.5-10.8,8.1-13.4c5.2-2.5,10.6-2.3,15.4,1c2,1.4,3.5,3.8,5.4,6c-2.7,1.4-4.8,2.5-6.9,3.6c-0.4-0.7-0.7-1.3-1-1.9
		c-1.5-2.6-3.7-3.8-6.6-3.5c-2.9,0.3-5.2,1.9-5.8,4.7c-0.5,2.6-0.6,5.4-0.1,8.1c0.5,3.1,2.8,4.9,5.9,5.2c3,0.3,5.4-0.8,6.9-3.5
		C243.4,73.6,243.7,73.2,244.1,72.4z"/>
	<path class="st0" d="M328.4,99.7c2.5,0,4.9,0,7.5,0c0,14.1,0,28.2,0,42.5c-2.4,0-4.8,0-7.5,0C328.4,128.1,328.4,114.1,328.4,99.7z"
		/>
	<path class="st0" d="M305.4,142.4c0-10.2,0-19.9,0-29.7c4.1-1.4,7.4-0.7,7.9,1.4c2.2-0.9,4.4-1.9,6.7-2.6c1.8-0.6,3.1,0,2.8,2.3
		c-0.2,1.7,0,3.4,0,5.3c-0.9,0.1-1.6,0.2-2.2,0.2c-4.9,0.1-7.2,2.2-7.4,7.1c-0.2,4.6-0.1,9.1-0.1,13.7c0,1.7-0.5,2.4-2.3,2.3
		C309.1,142.4,307.4,142.4,305.4,142.4z"/>
	<path class="st0" d="M323.8,53.6c2.6,0,4.9,0,7.5,0c0,9.9,0,19.8,0,29.8c-2.5,0-4.9,0-7.5,0C323.8,73.5,323.8,63.7,323.8,53.6z"/>
	<path class="st0" d="M196.4,23.8c-2.7,0.3-5.3,0.7-7.8,0.8c-2.5,0.1-4.2-1.3-5.3-3.5c-1.3-2.7-1.2-5.5,0-8.2c1.4-3,4.7-4.2,7.8-3
		c0.6,0.2,1.2,0.5,2.1,1c0-1.4,0-2.6,0-3.7c0-1.1,0-2.1,0-3.4c1.2,0,2.1,0,3.2,0C196.4,10.6,196.4,17.3,196.4,23.8z M193.3,16.9
		c0-2.7-1.6-4.7-3.8-4.6c-2.3,0-3.8,2.1-3.7,5c0.1,2.8,1.6,4.6,3.9,4.5C191.9,21.6,193.4,19.7,193.3,16.9z"/>
	<path class="st0" d="M222,14.2c0.9-3.8,3.1-5,7.8-4.5c3.1,0.3,4.1,1.6,4.3,5.2c0.2,2.7-1,5.6,1,8.1c0.2,0.2-0.1,1.2-0.3,1.3
		c-0.8,0.2-1.8,0.5-2.4,0.1c-1.3-0.9-2.3-0.4-3.6-0.1c-1.7,0.3-3.7,0.2-5.2-0.5c-1-0.5-2-2.4-1.9-3.6c0-1.2,1-2.9,2.1-3.5
		c1.6-0.9,3.6-1,5.5-1.5c0.5-0.2,1.4-0.7,1.4-1c-0.1-0.6-0.7-1.7-1-1.7c-1.4,0.1-3.4,0.1-4,0.9C224.5,15.1,223.5,14.6,222,14.2z
		 M230.4,17.5c-1.4,0.3-2.8,0.4-4,0.9c-0.7,0.3-1.5,1.3-1.4,1.9c0.1,0.7,1,1.5,1.7,1.8C229.3,22.9,231,20.9,230.4,17.5z"/>
	<path class="st0" d="M241.6,24c-1.3,0-2.2,0-3.2,0c0-4.8,0-9.4,0-14.4c1.4,0.3,2.5,0.6,3.9,0.9c1-0.3,2.4-0.8,3.9-0.9
		c2.7-0.2,4.5,1.1,4.7,3.7c0.3,3.5,0.1,7.1,0.1,10.8c-1,0-1.9,0-3.2,0c0-2.9,0.1-5.7,0-8.6c-0.1-2.5-2.1-3.9-4-2.7
		c-1,0.7-1.9,2.3-2,3.6C241.3,18.8,241.6,21.3,241.6,24z"/>
	<path class="st0" d="M160.2,24.1c0-6.8,0-13.4,0-20.2c1.1,0,2.1,0,3.5,0c0,5.7,0,11.3,0,17.1c3,0,5.8,0,8.7,0c0,1.2,0,2.1,0,3.1
		C168.2,24.1,164.3,24.1,160.2,24.1z"/>
	<path class="st0" d="M207,10.1c2.6-1,3.6,0,4.1,2.2c0.6,2.4,1.3,4.7,2.6,7c0.7-2.4,1.4-4.7,2.1-7.1c0.8-2.7,0.8-2.7,4-2
		c-1.4,4.3-2.8,8.7-4.3,12.9c-0.2,0.5-1.2,1-1.9,1c-0.8,0-2-0.4-2.2-0.9C209.8,18.9,208.4,14.5,207,10.1z"/>
	<path class="st0" d="M331.4,48.5c-2.8,0-5.1,0-7.7,0c0-2.6,0-5,0-7.7c2.2,0,4.2-0.1,6.3,0.1c0.5,0,1.3,0.8,1.3,1.3
		C331.5,44.1,331.4,46.2,331.4,48.5z"/>
	<path class="st0" d="M179,24.1c-1.1,0-1.9,0-3,0c0-4.7,0-9.3,0-14.1c0.9,0,1.9,0,3,0C179,14.7,179,19.3,179,24.1z"/>
	<path class="st0" d="M179,3.8c0,1.1,0,1.9,0,2.9c-1,0-2,0-3.1,0c0-1,0-1.9,0-2.9C176.9,3.8,177.9,3.8,179,3.8z"/>
</g>
</svg>
