<?xml version="1.0" encoding="utf-8"?>
<!-- Generator: Adobe Illustrator 25.0.0, SVG Export Plug-In . SVG Version: 6.00 Build 0)  -->
<svg version="1.1" id="Laag_1" xmlns="http://www.w3.org/2000/svg" xmlns:xlink="http://www.w3.org/1999/xlink" x="0px" y="0px"
	 viewBox="0 0 197.5 79.1" style="enable-background:new 0 0 197.5 79.1;" xml:space="preserve">
<style type="text/css">
	.st0{fill:#FFFFFF;}
	.st1{fill:#3D4975;}
	.st2{fill:#A0A4BC;}
	.st3{fill:#EB0045;}
	.st4{fill:#FFEB2B;}
</style>
<g>
	<g>
		<g>
			<path class="st0" d="M85.9,55.7c-2,1.1-4.3,1.6-6.8,1.6c-5.1,0-8.7-3.4-8.7-8.5c0-5.3,3.6-8.7,8.7-8.7c2.5,0,4.8,0.5,6.5,2.1
				l-2.2,2.2c-1-1-2.6-1.6-4.3-1.6c-3.4,0-5.6,2.6-5.6,5.9c0,3.5,2.2,6.1,5.6,6.1c1.5,0,2.8-0.3,3.8-0.9V50h-3.4v-2.6h6.3L85.9,55.7
				L85.9,55.7z"/>
			<path class="st0" d="M97.2,40.1c5.1-0.1,8.7,3.3,8.7,8.6c0,5.1-3.6,8.6-8.7,8.6c-5.1,0-8.7-3.4-8.7-8.5
				C88.5,43.5,92.1,40.1,97.2,40.1z M97.2,54.7c3.4,0,5.7-2.6,5.7-6.1c0-3.3-2.2-5.9-5.7-5.9c-3.4,0-5.6,2.6-5.6,5.9
				C91.6,52.1,93.8,54.7,97.2,54.7z"/>
			<path class="st0" d="M116.5,40.1c5.1-0.1,8.7,3.3,8.7,8.6c0,5.1-3.6,8.6-8.7,8.6c-5.1,0-8.7-3.4-8.7-8.5
				C107.8,43.5,111.4,40.1,116.5,40.1z M116.5,54.7c3.4,0,5.7-2.6,5.7-6.1c0-3.3-2.2-5.9-5.7-5.9c-3.4,0-5.6,2.6-5.6,5.9
				C110.9,52.1,113.1,54.7,116.5,54.7z"/>
			<path class="st0" d="M136,44c-0.6-0.9-1.7-1.3-2.9-1.3c-1.3,0-2.7,0.6-2.7,2.1c0,3.3,7.8,1.4,7.8,7.3c0,3.5-2.8,5.2-6,5.2
				c-2,0-4-0.6-5.4-2.2l2.2-2.1c0.7,1.1,1.9,1.7,3.2,1.7c1.3,0,2.9-0.7,2.9-2.2c0-3.6-7.8-1.5-7.8-7.4c0-3.4,3-5,6-5
				c1.7,0,3.4,0.5,4.7,1.7L136,44z"/>
			<path class="st0" d="M149.3,44c-0.6-0.9-1.7-1.3-2.9-1.3c-1.3,0-2.7,0.6-2.7,2.1c0,3.3,7.8,1.4,7.8,7.3c0,3.5-2.8,5.2-6,5.2
				c-2,0-4-0.6-5.4-2.2l2.2-2.1c0.7,1.1,1.9,1.7,3.2,1.7c1.3,0,2.9-0.7,2.9-2.2c0-3.6-7.8-1.5-7.8-7.4c0-3.4,3-5,6-5
				c1.7,0,3.4,0.5,4.7,1.7L149.3,44z"/>
			<path class="st0" d="M154.6,40.5h10.9v2.6h-7.9v4h7.5v2.6h-7.5v4.4h8.4v2.6h-11.3V40.5z"/>
			<path class="st0" d="M168.8,40.5h3.9l7.9,12.2l0,0h0l0,0V40.5h2.9v16.4h-3.7l-8.1-12.6h0v12.6h-2.9L168.8,40.5L168.8,40.5z"/>
			<path class="st0" d="M195.2,44c-0.6-0.9-1.7-1.3-2.9-1.3c-1.3,0-2.7,0.6-2.7,2.1c0,3.3,7.8,1.4,7.8,7.3c0,3.5-2.8,5.2-6,5.2
				c-2,0-4-0.6-5.4-2.2l2.2-2.1c0.7,1.1,1.9,1.7,3.2,1.7c1.3,0,2.9-0.7,2.9-2.2c0-3.6-7.8-1.5-7.8-7.4c0-3.4,3-5,6-5
				c1.7,0,3.4,0.5,4.7,1.7L195.2,44z"/>
		</g>
		<g>
			<path class="st0" d="M81.5,31.3c0,2.6-1.6,5-4.9,5c-2.6,0-4.3-1.2-4.8-3.8l2.7-0.7c0.2,1.1,0.9,1.8,1.9,1.8
				c1.7,0,2.2-1.2,2.2-3.2v-11h2.9L81.5,31.3L81.5,31.3z"/>
			<path class="st0" d="M98.2,29.8c0,4-2.8,6.4-6.6,6.4c-3.8,0-6.6-2.5-6.6-6.4V19.5h2.9v10.3c0,1.6,0.9,3.8,3.7,3.8
				c2.8,0,3.7-2.1,3.7-3.8V19.5h2.9L98.2,29.8L98.2,29.8z"/>
			<path class="st0" d="M101.8,19.5h2.9v13.8h7v2.6h-9.9C101.8,35.9,101.8,19.5,101.8,19.5z"/>
			<path class="st0" d="M113.8,19.5h10.9v2.6h-7.9v4h7.5v2.6h-7.5v4.4h8.4v2.6h-11.3V19.5z"/>
			<path class="st0" d="M136,23c-0.6-0.9-1.7-1.3-2.9-1.3c-1.3,0-2.7,0.6-2.7,2.1c0,3.3,7.8,1.4,7.8,7.3c0,3.5-2.8,5.2-6,5.2
				c-2,0-4-0.6-5.4-2.2l2.2-2.1c0.7,1.1,1.9,1.7,3.2,1.7c1.3,0,2.9-0.7,2.9-2.2c0-3.6-7.8-1.5-7.8-7.4c0-3.4,3-5,6-5
				c1.7,0,3.4,0.5,4.7,1.7L136,23z"/>
		</g>
		<g>
			<path class="st0" d="M73.4,63.5h2.1c1.2,0,2.3,0.4,2.3,1.7c0,0.8-0.5,1.4-1.2,1.6v0c0.9,0.1,1.6,0.8,1.6,1.7c0,1.5-1.4,2-2.7,2
				h-2.1L73.4,63.5L73.4,63.5z M74.2,66.4h1.2c0.8,0,1.6-0.2,1.6-1.1c0-0.9-0.8-1.1-1.5-1.1h-1.2C74.2,64.2,74.2,66.4,74.2,66.4z
				 M74.2,69.7h1.4c0.8,0,1.7-0.3,1.7-1.2c0-1-0.8-1.3-1.7-1.3h-1.4L74.2,69.7L74.2,69.7z"/>
			<path class="st0" d="M81.1,63.5H82v6.2h3.2v0.8h-4V63.5z"/>
			<path class="st0" d="M87.6,63.5h0.8v7h-0.8V63.5z"/>
			<path class="st0" d="M91.6,63.5h0.8v3h0.1l3.2-3H97l-3.5,3.2l3.6,3.8h-1.2l-3.3-3.6h-0.1v3.6h-0.8L91.6,63.5L91.6,63.5z"/>
			<path class="st0" d="M102.7,64.7c-0.3-0.4-0.8-0.6-1.3-0.6c-0.7,0-1.5,0.3-1.5,1.2c0,0.6,0.4,0.9,1.5,1.3
				c1.1,0.3,2.1,0.7,2.1,2.1c0,1.4-1.2,2-2.5,2c-0.8,0-1.7-0.3-2.2-1l0.7-0.6c0.3,0.5,0.9,0.8,1.5,0.8c0.7,0,1.5-0.4,1.5-1.2
				c0-0.9-0.6-1-1.8-1.4c-1-0.3-1.7-0.8-1.7-1.9c0-1.3,1.2-2,2.4-2c0.8,0,1.4,0.2,2,0.8L102.7,64.7z"/>
			<path class="st0" d="M106.3,63.5h4.4v0.8h-3.6v2.2h3.3v0.8h-3.3v2.5h3.8v0.8h-4.6V63.5z"/>
			<path class="st0" d="M113.7,63.5h1.2l2.4,5.5h0l2.4-5.5h1.2v7h-0.8v-5.9h0l-2.5,5.9h-0.5l-2.5-5.9h0v5.9h-0.8L113.7,63.5
				L113.7,63.5z"/>
			<path class="st0" d="M124.2,63.5h2.1c1.2,0,2.3,0.4,2.3,1.7c0,0.8-0.5,1.4-1.2,1.6v0c0.9,0.1,1.6,0.8,1.6,1.7c0,1.5-1.4,2-2.7,2
				h-2.1L124.2,63.5L124.2,63.5z M125,66.4h1.1c0.8,0,1.6-0.2,1.6-1.1c0-0.9-0.8-1.1-1.5-1.1H125V66.4z M125,69.7h1.4
				c0.8,0,1.7-0.3,1.7-1.2c0-1-0.8-1.3-1.7-1.3H125L125,69.7L125,69.7z"/>
			<path class="st0" d="M131.9,63.5h4.4v0.8h-3.6v2.2h3.3v0.8h-3.3v2.5h3.8v0.8h-4.6V63.5z"/>
			<path class="st0" d="M138.3,63.5h0.9l2.2,5.8h0l2.2-5.8h0.9l-2.7,7H141L138.3,63.5z"/>
			<path class="st0" d="M146.8,63.5h4.4v0.8h-3.6v2.2h3.3v0.8h-3.3v2.5h3.8v0.8h-4.6V63.5z"/>
			<path class="st0" d="M154.2,63.5h0.8v7h-0.8V63.5z"/>
			<path class="st0" d="M158.2,63.5h0.8v6.2h3.2v0.8h-4V63.5z"/>
			<path class="st0" d="M164.7,63.5h0.8v7h-0.8V63.5z"/>
			<path class="st0" d="M174.7,70c-0.8,0.4-1.7,0.7-2.6,0.7c-2.2,0-3.7-1.5-3.7-3.7c0-2.2,1.7-3.7,3.8-3.7c0.9,0,1.8,0.2,2.5,0.9
				l-0.6,0.7c-0.5-0.5-1.2-0.8-1.9-0.8c-1.6,0-2.8,1.2-2.8,2.9c0,1.7,1.2,2.9,2.9,2.9c0.6,0,1.2-0.1,1.7-0.4v-2.2h-1.6v-0.8h2.4
				L174.7,70L174.7,70z"/>
			<path class="st0" d="M177.9,63.5h0.8v7h-0.8V63.5z"/>
			<path class="st0" d="M182,63.5h1.1l4.1,5.8h0v-5.8h0.8v7h-1.1l-4.1-5.8h0v5.8H182L182,63.5L182,63.5z"/>
			<path class="st0" d="M197.1,70c-0.8,0.4-1.7,0.7-2.6,0.7c-2.2,0-3.7-1.5-3.7-3.7c0-2.2,1.7-3.7,3.8-3.7c0.9,0,1.8,0.2,2.5,0.9
				l-0.6,0.7c-0.5-0.5-1.2-0.8-1.9-0.8c-1.6,0-2.8,1.2-2.8,2.9c0,1.7,1.2,2.9,2.9,2.9c0.6,0,1.2-0.1,1.7-0.4v-2.2h-1.6v-0.8h2.4
				L197.1,70L197.1,70z"/>
		</g>
	</g>
	<path class="st1" d="M31.2,78c-9.2-4.4-17-12.3-22.7-22.9C3,44.7,0,32.3,0,19.4c0-2.7,0.1-5.5,0.4-8.3l0.3-2.8L3.2,7
		c8.9-4.6,19.4-7,30.3-7s21.3,2.4,30.3,7l2.5,1.3l0.3,2.8c0.3,2.8,0.4,5.6,0.4,8.3c0,12.9-3,25.3-8.6,35.8
		C52.8,65.7,44.9,73.6,35.7,78l-2.2,1.1L31.2,78z"/>
	<path class="st0" d="M33.5,76.9l-1.3-0.6c-8.8-4.2-16.3-11.8-21.7-22C5,44.1,2.1,32.1,2.1,19.5c0-2.7,0.1-5.4,0.4-8.1l0.2-1.6
		L4.2,9C12.8,4.6,23,2.2,33.5,2.2S54.1,4.6,62.8,9l1.5,0.8l0.2,1.6c0.3,2.7,0.4,5.4,0.4,8.1c0,12.5-2.9,24.6-8.3,34.8
		c-5.4,10.1-12.9,17.7-21.7,22L33.5,76.9z"/>
	<g>
		<g>
			<path class="st2" d="M61.4,11.7c-7.9-4.1-17.5-6.5-27.9-6.5c-10.4,0-20,2.4-27.9,6.5c-0.3,2.5-0.4,5.1-0.4,7.8
				c0,19.1,7,36.1,17.7,46.5l8.5-8.5v-8.1h4.1v8.1l8.5,8.5c10.7-10.4,17.7-27.4,17.7-46.5C61.8,16.9,61.7,14.3,61.4,11.7z"/>
		</g>
	</g>
	<g>
		<path class="st3" d="M33.5,72.3c2.5-1.2,4.9-2.7,7.2-4.5l-7.2-7.2l-7.2,7.2C28.6,69.6,31,71.1,33.5,72.3"/>
	</g>
	<path class="st1" d="M61.4,11.7c-7.9-4.1-17.5-6.5-27.9-6.5c-10.4,0-20,2.4-27.9,6.5c-0.3,2.5-0.4,5.1-0.4,7.8
		c0,5.3,0.5,10.4,1.5,15.2c0.5,0.1,1.1,0.1,1.6,0.1c3.2,0,6.3-0.9,8.8-2.5c3.6,4.9,9.4,8,15.9,8c6.5,0,12.3-3.1,15.9-8
		c2.6,1.6,5.6,2.5,8.8,2.5c0.9,0,1.8-0.1,2.6-0.2c1-4.8,1.5-9.8,1.5-15C61.8,16.9,61.7,14.3,61.4,11.7z"/>
	<path class="st4" d="M24.3,14.2l9.1,33.4V25.1l9.2,4.1L36,5.3c-0.9,0-1.7-0.1-2.6,0v12.4L24.3,14.2z"/>
</g>
</svg>
